<svg id="icon_ture" data-name="icon ture" xmlns="http://www.w3.org/2000/svg" width="864.73" height="682.242" viewBox="0 0 864.73 682.242">
  <path id="Path_105" data-name="Path 105" d="M695.636,404.871H497.5A20.729,20.729,0,0,1,476.8,384.165V125.577A20.729,20.729,0,0,1,497.5,104.871H695.636a20.729,20.729,0,0,1,20.706,20.706V384.165a20.729,20.729,0,0,1-20.706,20.706Z" transform="translate(-173.493 -103.871)" fill="#f0f0f0"/>
  <path id="Path_106" data-name="Path 106" d="M695.636,405.871H497.5A21.731,21.731,0,0,1,475.8,384.165V125.577A21.73,21.73,0,0,1,497.5,103.871H695.636a21.731,21.731,0,0,1,21.706,21.706V384.165a21.731,21.731,0,0,1-21.706,21.706Zm-198.133-300A19.728,19.728,0,0,0,477.8,125.577V384.165A19.728,19.728,0,0,0,497.5,403.871H695.636a19.728,19.728,0,0,0,19.706-19.706V125.577a19.728,19.728,0,0,0-19.706-19.706Z" transform="translate(-173.493 -103.871)" fill="#6c63ff"/>
  <path id="Path_107" data-name="Path 107" d="M1017.52,404.871H819.384a20.729,20.729,0,0,1-20.706-20.706V125.577a20.729,20.729,0,0,1,20.706-20.706h198.133a20.729,20.729,0,0,1,20.706,20.706V384.165a20.729,20.729,0,0,1-20.7,20.706Z" transform="translate(-173.493 -103.871)" fill="#f0f0f0"/>
  <circle id="Ellipse_28" data-name="Ellipse 28" cx="35.811" cy="35.811" r="35.811" transform="translate(383.76 261.381)" fill="#6c63ff"/>
  <path id="Path_108" data-name="Path 108" d="M588.178,419.7a3.982,3.982,0,0,1-3.186-1.594l-9.77-13.027a3.983,3.983,0,0,1,6.374-4.78l6.392,8.522L604.4,384.2a3.984,3.984,0,1,1,6.629,4.419l-19.54,29.309a3.985,3.985,0,0,1-3.2,1.773Z" transform="translate(-173.493 -103.871)" fill="#fff"/>
  <path id="Path_109" data-name="Path 109" d="M561.993,543.162h-380a8.51,8.51,0,0,1-8.5-8.5v-344a8.509,8.509,0,0,1,8.5-8.5h380a8.509,8.509,0,0,1,8.5,8.5v344A8.51,8.51,0,0,1,561.993,543.162Z" transform="translate(-173.493 -103.871)" fill="#3f3d56"/>
  <path id="Path_110" data-name="Path 110" d="M553.993,535.162h-364a8.51,8.51,0,0,1-8.5-8.5v-328a8.509,8.509,0,0,1,8.5-8.5h364a8.509,8.509,0,0,1,8.5,8.5v328a8.51,8.51,0,0,1-8.5,8.5Z" transform="translate(-173.493 -103.871)" fill="#fff"/>
  <path id="Path_111" data-name="Path 111" d="M208.487,225.8q64.256-1.117,128.526-.321T465.491,229q36.035,1.528,72.041,3.662c1.929.114,1.922-2.886,0-3q-64.153-3.8-128.4-5.681t-128.513-1.837q-36.067.024-72.131.654c-1.928.034-1.934,3.034,0,3Z" transform="translate(-173.493 -103.871)" fill="#3f3d56"/>
  <path id="Path_112" data-name="Path 112" d="M507.022,206.985l18.731-1.394c1.914-.142,1.929-3.144,0-3l-18.732,1.394c-1.914.142-1.929,3.144,0,3Z" transform="translate(-173.493 -103.871)" fill="#3f3d56"/>
  <path id="Path_113" data-name="Path 113" d="M507.022,224.985l18.731-1.394c1.914-.142,1.929-3.144,0-3l-18.732,1.394c-1.914.142-1.929,3.144,0,3Z" transform="translate(-173.493 -103.871)" fill="#3f3d56"/>
  <path id="Path_114" data-name="Path 114" d="M505.613,216.765l26.632,2.42c1.922.175,1.91-2.826,0-3l-26.632-2.42c-1.922-.175-1.91,2.826,0,3Z" transform="translate(-173.493 -103.871)" fill="#3f3d56"/>
  <path id="Path_115" data-name="Path 115" d="M219.572,202.951a6.636,6.636,0,0,0-6.133,4.006,5.974,5.974,0,0,0,1.375,7.1,7.1,7.1,0,0,0,6.729,1.367,6,6,0,0,0,4.023-5.643,6.707,6.707,0,0,0-4.179-6.469,1.506,1.506,0,0,0-1.845,1.048,1.543,1.543,0,0,0,1.048,1.845c.261.1-.239-.128.005,0,.1.055.2.1.3.162s.164.1.246.157c.28.183-.137-.134.042.03.155.142.309.281.45.439.053.059.262.225.1.109-.124-.088-.048-.068,0,0,.036.054.075.106.111.16a5.348,5.348,0,0,1,.318.55c.022.044.042.089.065.132.042.082.1.1,0,0s-.034-.091,0,0c.022.062.046.123.068.185a5.78,5.78,0,0,1,.177.617c.022.1.04.194.059.291.067.344-.01-.214.006.042.014.214.029.425.026.639q0,.147-.013.294c0,.049-.009.1-.012.146-.016.235-.016-.086.017-.108a2.771,2.771,0,0,0-.136.617c-.027.093-.059.184-.089.277-.1.322.1-.175-.013.045a5.48,5.48,0,0,1-.306.55c-.049.074-.233.242-.082.125s-.086.091-.139.148q-.1.108-.213.209a1.7,1.7,0,0,1-.149.129c-.01,0,.251-.174.11-.084-.178.114-.347.235-.535.334-.022.012-.262.123-.261.127-.01-.04.309-.112.09-.042-.046.015-.091.033-.137.048a4.9,4.9,0,0,1-.609.162c-.047.009-.1.014-.144.026-.155.04.148-.024.157-.018a1.307,1.307,0,0,0-.341.03,5.58,5.58,0,0,1-.639,0l-.148-.011c-.114-.007-.2-.089-.046,0,.117.069.108.019,0,0l-.146-.026a5.824,5.824,0,0,1-.624-.153c-.11-.034-.218-.073-.327-.111a.869.869,0,0,1-.138-.053c0-.012.281.134.132.054-.187-.1-.381-.186-.564-.3-.1-.059-.191-.123-.286-.186a.923.923,0,0,1-.119-.085c0-.013.233.2.112.085-.152-.145-.315-.275-.459-.43-.033-.035-.064-.072-.1-.108l-.032-.036q-.122-.149,0,0c.079.023.076.111,0,0-.027-.04-.055-.08-.082-.12a3.135,3.135,0,0,1-.31-.554c.007-.006.13.361.036.084-.018-.052-.038-.1-.055-.156q-.052-.156-.091-.315c-.026-.105-.039-.214-.065-.319-.044-.177.026.139.018.132-.025-.025-.014-.178-.016-.215-.012-.235.015-.464.019-.7,0-.181-.015.141-.019.132a.508.508,0,0,1,.028-.159c.027-.123.052-.247.086-.369q.057-.21.131-.414c.019-.051.041-.1.058-.153.063-.188-.125.227-.021.058.143-.234.249-.487.4-.717.036-.055.254-.359.138-.206s.119-.137.163-.187c.184-.2.4-.373.591-.569.113-.116-.079.057-.09.065.059-.042.117-.086.176-.127q.156-.108.32-.2c.123-.072.262-.126.381-.2.141-.09-.108.04-.112.042a1.115,1.115,0,0,1,.2-.077c.116-.041.621-.259.727-.191,0,0-.384.03-.077.011.072,0,.144-.012.217-.015.147-.006.293,0,.439.005a1.51,1.51,0,0,0,1.5-1.5,1.533,1.533,0,0,0-1.5-1.5Z" transform="translate(-173.493 -103.871)" fill="#3f3d56"/>
  <path id="Path_116" data-name="Path 116" d="M240.572,202.951a6.636,6.636,0,0,0-6.133,4.006,5.974,5.974,0,0,0,1.375,7.1,7.1,7.1,0,0,0,6.729,1.367,6,6,0,0,0,4.023-5.643,6.707,6.707,0,0,0-4.179-6.469,1.506,1.506,0,0,0-1.845,1.048,1.543,1.543,0,0,0,1.048,1.845c.261.1-.239-.128.005,0,.1.055.2.1.3.162s.164.1.246.157c.28.183-.137-.134.042.03.155.142.309.281.45.439.053.059.262.225.1.109-.124-.088-.048-.068,0,0,.036.054.075.106.111.16a5.348,5.348,0,0,1,.318.55c.022.044.042.089.065.132.042.082.1.1,0,0s-.034-.091,0,0c.022.062.046.123.068.185a5.784,5.784,0,0,1,.177.617c.022.1.04.194.059.291.067.344-.01-.214.006.042.014.214.029.425.026.639q0,.147-.013.294c0,.049-.009.1-.012.146-.016.235-.016-.086.017-.108a2.77,2.77,0,0,0-.136.617c-.027.093-.059.184-.089.277-.1.322.1-.175-.013.045a5.48,5.48,0,0,1-.306.55c-.049.074-.233.242-.082.125s-.086.091-.139.148q-.1.108-.213.209a1.7,1.7,0,0,1-.149.129c-.01,0,.251-.174.11-.084-.178.114-.347.235-.535.334-.022.012-.262.123-.261.127-.01-.04.309-.112.09-.042-.046.015-.091.033-.137.048a4.9,4.9,0,0,1-.609.162c-.047.009-.1.014-.144.026-.155.04.148-.024.157-.018a1.308,1.308,0,0,0-.341.03,5.579,5.579,0,0,1-.639,0l-.148-.011c-.114-.007-.2-.089-.046,0,.117.069.108.019,0,0l-.146-.026a5.816,5.816,0,0,1-.624-.153c-.11-.034-.218-.073-.327-.111a.868.868,0,0,1-.138-.053c0-.012.281.134.132.054-.187-.1-.381-.186-.564-.3-.1-.059-.191-.123-.286-.186a.922.922,0,0,1-.119-.085c0-.013.233.2.112.085-.152-.145-.315-.275-.459-.43-.033-.035-.064-.072-.1-.108l-.032-.036q-.122-.149,0,0c.079.023.076.111,0,0-.027-.04-.055-.08-.082-.12a3.133,3.133,0,0,1-.31-.554c.007-.006.13.361.036.084-.018-.052-.038-.1-.055-.156q-.052-.156-.091-.315c-.026-.105-.039-.214-.065-.319-.044-.177.026.139.018.132-.025-.025-.014-.178-.016-.215-.012-.235.015-.464.019-.7,0-.181-.015.141-.019.132a.508.508,0,0,1,.028-.159c.027-.123.052-.247.086-.369q.057-.21.131-.414c.019-.051.041-.1.058-.153.063-.188-.125.227-.021.058.143-.234.249-.487.4-.717.036-.055.254-.359.138-.206s.119-.137.163-.187c.184-.2.4-.373.591-.569.113-.116-.079.057-.09.065.059-.042.117-.086.176-.127q.156-.108.32-.2c.123-.072.262-.126.381-.2.141-.09-.108.04-.112.042a1.116,1.116,0,0,1,.2-.077c.116-.041.621-.259.727-.191,0,0-.384.03-.077.011.072,0,.144-.012.217-.015.147-.006.293,0,.439.005a1.51,1.51,0,0,0,1.5-1.5,1.533,1.533,0,0,0-1.5-1.5Z" transform="translate(-173.493 -103.871)" fill="#3f3d56"/>
  <path id="Path_117" data-name="Path 117" d="M261.572,202.951a6.636,6.636,0,0,0-6.133,4.006,5.974,5.974,0,0,0,1.375,7.1,7.1,7.1,0,0,0,6.729,1.367,6,6,0,0,0,4.023-5.643,6.707,6.707,0,0,0-4.179-6.469,1.506,1.506,0,0,0-1.845,1.048,1.543,1.543,0,0,0,1.048,1.845c.261.1-.239-.128.005,0,.1.055.2.1.3.162s.164.1.246.157c.28.183-.137-.134.042.03.155.142.309.281.45.439.053.059.262.225.1.109-.124-.088-.048-.068,0,0,.036.054.075.106.111.16a5.343,5.343,0,0,1,.318.55c.022.044.042.089.065.132.042.082.1.1,0,0s-.034-.091,0,0c.022.062.046.123.068.185a5.784,5.784,0,0,1,.177.617c.022.1.04.194.059.291.067.344-.01-.214.006.042.014.214.029.425.026.639q0,.147-.013.294c0,.049-.009.1-.012.146-.016.235-.016-.086.017-.108a2.77,2.77,0,0,0-.136.617c-.027.093-.059.184-.089.277-.1.322.1-.175-.013.045a5.48,5.48,0,0,1-.306.55c-.049.074-.233.242-.082.125s-.086.091-.139.148q-.1.108-.213.209a1.7,1.7,0,0,1-.149.129c-.01,0,.251-.174.11-.084-.178.114-.347.235-.535.334-.022.012-.262.123-.261.127-.01-.04.309-.112.09-.042-.046.015-.091.033-.137.048a4.9,4.9,0,0,1-.609.162c-.047.009-.1.014-.144.026-.155.04.148-.024.157-.018a1.308,1.308,0,0,0-.341.03,5.579,5.579,0,0,1-.639,0l-.148-.011c-.114-.007-.2-.089-.046,0,.117.069.108.019,0,0l-.146-.026a5.818,5.818,0,0,1-.624-.153c-.11-.034-.218-.073-.327-.111a.868.868,0,0,1-.138-.053c0-.012.28.134.132.054-.187-.1-.381-.186-.564-.3-.1-.059-.191-.123-.286-.186a.923.923,0,0,1-.119-.085c0-.013.233.2.112.085-.152-.145-.315-.275-.459-.43-.033-.035-.064-.072-.1-.108l-.032-.036q-.122-.149,0,0c.079.023.076.111,0,0-.027-.04-.055-.08-.082-.12a3.137,3.137,0,0,1-.31-.554c.007-.006.13.361.036.084-.018-.052-.038-.1-.055-.156q-.052-.156-.091-.315c-.026-.105-.039-.214-.065-.319-.044-.177.026.139.018.132-.025-.025-.014-.178-.016-.215-.012-.235.015-.464.019-.7,0-.181-.015.141-.019.132a.508.508,0,0,1,.028-.159c.027-.123.052-.247.086-.369q.057-.21.131-.414c.019-.051.041-.1.058-.153.063-.188-.125.227-.021.058.143-.234.249-.487.4-.717.036-.055.254-.359.138-.206s.119-.137.163-.187c.184-.2.4-.373.591-.569.113-.116-.079.057-.09.065.059-.042.117-.086.177-.127q.156-.108.32-.2c.123-.072.262-.126.381-.2.141-.09-.108.04-.112.042a1.116,1.116,0,0,1,.2-.077c.116-.041.621-.259.727-.191,0,0-.384.03-.077.011.072,0,.144-.012.217-.015.147-.006.293,0,.439.005a1.51,1.51,0,0,0,1.5-1.5,1.533,1.533,0,0,0-1.5-1.5Z" transform="translate(-173.493 -103.871)" fill="#3f3d56"/>
  <path id="Path_118" data-name="Path 118" d="M217.746,281.733l1.338,51.2,1.338,51.2c.169,6.461-.744,15.274,5.81,19.058,2.734,1.579,6,1.925,9.1,2.011,4.113.114,8.239.03,12.354.034l51.25.055c6.734.007,14.13-.189,18.954-5.613,4.027-4.527,5.168-10.8,5.572-16.659.533-7.729.277-15.554.346-23.3l.23-25.734.23-25.734c.07-7.818.439-15.7.1-23.512-.262-5.961-1.269-12.327-5.266-17.011-4.553-5.337-11.752-6.057-18.318-6.267-16.981-.544-33.965-1-50.948-1.5-3.907-.115-7.825-.325-11.734-.273a30.362,30.362,0,0,0-10.236,1.568c-5.491,2.056-9.78,6.987-9.589,13.1a9.1,9.1,0,0,0,3.1,6.756c1.465,1.24,3.6-.872,2.121-2.121-4-3.386-2.064-9.73,1.435-12.735,5.069-4.354,13.016-3.647,19.2-3.465l48.108,1.419c3.731.11,7.472.147,11.2.366,3.327.2,6.8.628,9.779,2.23,5.149,2.77,7.158,8.454,7.834,13.951.851,6.916.339,14.053.277,21l-.219,24.484-.433,48.469c-.053,5.9.038,11.98-1.945,17.617a14.869,14.869,0,0,1-4.51,6.723,16.231,16.231,0,0,1-9.029,3.087c-3.652.294-7.345.152-11,.148l-12.5-.013-24-.026-12.5-.013c-3.653,0-7.332.124-10.98-.077-2.8-.154-5.924-.638-7.987-2.721-2.311-2.333-2.525-5.936-2.631-9.03-1.1-32.22-1.687-64.466-2.529-96.693l-.313-11.989c-.05-1.927-3.051-1.934-3,0Z" transform="translate(-173.493 -103.871)" fill="#3f3d56"/>
  <path id="Path_119" data-name="Path 119" d="M407.746,281.733l1.338,51.2,1.338,51.2c.169,6.461-.744,15.274,5.81,19.058,2.734,1.579,6,1.925,9.1,2.011,4.113.114,8.239.03,12.354.034l51.25.055c6.734.007,14.13-.189,18.954-5.613,4.027-4.527,5.168-10.8,5.572-16.659.533-7.729.277-15.554.346-23.3l.23-25.734.23-25.734c.07-7.818.439-15.7.1-23.512-.262-5.961-1.269-12.327-5.266-17.011-4.553-5.337-11.752-6.057-18.318-6.267-16.981-.544-33.965-1-50.948-1.5-3.907-.115-7.825-.325-11.734-.273a30.362,30.362,0,0,0-10.236,1.568c-5.491,2.056-9.78,6.987-9.589,13.1a9.1,9.1,0,0,0,3.1,6.756c1.466,1.24,3.6-.872,2.121-2.121-4-3.386-2.064-9.73,1.435-12.735,5.069-4.354,13.016-3.647,19.2-3.465l48.108,1.419c3.731.11,7.472.147,11.2.366,3.327.2,6.8.628,9.779,2.23,5.149,2.77,7.158,8.454,7.834,13.951.851,6.916.339,14.053.277,21l-.219,24.484-.433,48.469c-.053,5.9.038,11.98-1.945,17.617a14.869,14.869,0,0,1-4.51,6.723,16.231,16.231,0,0,1-9.029,3.087c-3.652.294-7.345.152-11,.148l-12.5-.013-24-.026-12.5-.013c-3.653,0-7.332.124-10.98-.077-2.8-.154-5.924-.638-7.987-2.721-2.311-2.333-2.525-5.936-2.631-9.03-1.1-32.22-1.687-64.466-2.529-96.693l-.313-11.989c-.05-1.927-3.051-1.934-3,0Z" transform="translate(-173.493 -103.871)" fill="#3f3d56"/>
  <path id="Path_120" data-name="Path 120" d="M269.529,416.385a8.486,8.486,0,0,0-8.044-2.092,9.809,9.809,0,0,0-6.364,5.463c-2.834,6.036-.3,13.072,3.621,18,3.639,4.58,9.551,7.6,15.311,5.194a13.632,13.632,0,0,0,8.218-13.625c-.726-6.7-6.173-12.131-12.569-13.768-1.871-.479-2.67,2.414-.8,2.893a14.044,14.044,0,0,1,9.834,8.694,10.523,10.523,0,0,1-3.628,11.769c-8.939,6.865-19.165-6.26-18.162-14.848a8.291,8.291,0,0,1,3.785-6.281,5.624,5.624,0,0,1,6.674.721,1.5,1.5,0,0,0,2.121-2.121Z" transform="translate(-173.493 -103.871)" fill="#3f3d56"/>
  <path id="Path_121" data-name="Path 121" d="M452.8,312.27c-3.5-1.2-7.565-2.4-11.187-.988-3.417,1.332-5.3,4.592-5.67,8.13-.413,3.946,1.265,7.709,3.043,11.125,2.139,4.109,4.345,8.185,6.519,12.276l7.519,14.15a1.511,1.511,0,0,0,2.8-.757,28.94,28.94,0,0,1,2.192-13.9c1.923-4.431,5.065-8.173,7.3-12.433,2.056-3.922,3.427-8.422,2.338-12.842-.881-3.575-3.481-7.054-7.228-7.886a8.2,8.2,0,0,0-9.553,4.719c-.708,1.8,2.192,2.576,2.893.8,1-2.533,4.491-3.31,6.819-2.34,3.033,1.263,4.472,4.888,4.468,7.97,0,4.213-2.163,8.062-4.353,11.522-2.212,3.495-4.536,6.874-6.007,10.77a31.427,31.427,0,0,0-1.868,13.629l2.8-.757c-4.882-9.188-10.033-18.283-14.642-27.611-1.772-3.587-3.367-8.425-.649-12,2.786-3.668,8.1-1.9,11.68-.671,1.83.629,2.615-2.268.8-2.893Z" transform="translate(-173.493 -103.871)" fill="#3f3d56"/>
  <path id="Path_122" data-name="Path 122" d="M261.868,424.766l4.417,8.568a1.515,1.515,0,0,0,2.742-.358,33,33,0,0,1,7.971-15.9c1.3-1.423-.816-3.551-2.121-2.121a35.923,35.923,0,0,0-8.742,17.228l2.742-.358-4.417-8.568c-.885-1.717-3.475-.2-2.59,1.514Z" transform="translate(-173.493 -103.871)" fill="#3f3d56"/>
  <path id="Path_123" data-name="Path 123" d="M311.975,385.213l-34.9,30.828a1.025,1.025,0,0,1-1.435-1.461l32.521-35.507Z" transform="translate(-173.493 -103.871)" fill="#3f3d56"/>
  <path id="Path_124" data-name="Path 124" d="M185.013,656.522h13.718l6.529-52.914H185.013Z" fill="#ffb6b6"/>
  <path id="Path_125" data-name="Path 125" d="M351.265,784.162H361.1l1.756-9.288,4.5,9.288h26.093a5.865,5.865,0,0,0,3.334-10.692l-20.837-14.391v-9.39L354.029,751Z" transform="translate(-173.493 -103.871)" fill="#2f2e41"/>
  <path id="Path_126" data-name="Path 126" d="M302.519,656.522h13.718l6.529-52.914H302.519Z" fill="#ffb6b6"/>
  <path id="Path_127" data-name="Path 127" d="M468.771,784.162h9.838l1.756-9.288,4.5,9.288h26.093a5.865,5.865,0,0,0,3.333-10.692l-20.837-14.391v-9.39L471.534,751Z" transform="translate(-173.493 -103.871)" fill="#2f2e41"/>
  <path id="Path_128" data-name="Path 128" d="M436.363,479.917l-69.576-7.731s-30.923,40.2-19.327,74.987v38.739l8.5,151.436,21.259,1.16,6.185-68.8,5.8-27.444L394.09,537.7l24.879,29.958,2.319,11.6,7.731,5.411,14.3,19.652L472.7,724.979l25.888.387S484.68,600.128,483.133,600.128s-40.2-84.264-40.2-84.264v-4.459l-1.546-8.683s3.865-3.092,2.319-4.638-3.092-6.185-3.092-6.185Z" transform="translate(-173.493 -103.871)" fill="#2f2e41"/>
  <path id="Path_129" data-name="Path 129" d="M411.238,372.074l13.915,15.461,19.327,6.958-10.823,63.391,3.59,18.228,5.3,20.038c-20.424,11.3-44.685-4.3-66.973-11.235l-21.93,9.689,1.16-26.671.595-67.2a18.834,18.834,0,0,1,20.278-18.612h0L390.365,371.3Z" transform="translate(-173.493 -103.871)" fill="#6c63ff"/>
  <path id="Path_130" data-name="Path 130" d="M285.006,400.431a7.882,7.882,0,0,0,9.964,6.841L310.923,430.3l5.424-13.507L300.366,397a7.925,7.925,0,0,0-15.36,3.435Z" transform="translate(-173.493 -103.871)" fill="#ffb8b8"/>
  <path id="Path_131" data-name="Path 131" d="M368.536,382.454s-20.765-.92-18.44,40.346l-8.834,18.128-17.767-16.582-.08-5.278-15.025-16.8-12.061,13.333,8.028,12.275,1.548,6.855,4.89,2.987,12.758,19.506,5.9,5.809s7.486,7.46,15.954,6.336a21.753,21.753,0,0,0,6.517-1.917c4.028-1.917,8.008-5.355,11.354-11.175A348.817,348.817,0,0,0,382.1,419.063Z" transform="translate(-173.493 -103.871)" fill="#6c63ff"/>
  <path id="Path_132" data-name="Path 132" d="M459.44,335.866a7.882,7.882,0,0,0,6.774,10.01l6.435,27.261,9.985-10.591-7.642-24.264a7.925,7.925,0,0,0-15.553-2.416Z" transform="translate(-173.493 -103.871)" fill="#ffb8b8"/>
  <path id="Path_133" data-name="Path 133" d="M415.248,390.819s10.98-17.649,43.705,7.6l19.947,2.961-3.634-24.03-4.308-3.05L465.6,352.409,483.415,350,489,363.559l4.78,5.152-.3,5.722,8.877,21.55,1.455,8.152s1.922,10.393-3.792,16.742a21.751,21.751,0,0,1-5.265,4.292c-3.859,2.239-8.944,3.578-15.637,3.048a348.8,348.8,0,0,1-41.343-5.511Z" transform="translate(-173.493 -103.871)" fill="#6c63ff"/>
  <circle id="Ellipse_29" data-name="Ellipse 29" cx="26.778" cy="26.778" r="26.778" transform="translate(191.023 227.609) rotate(-28.663)" fill="#ffb6b6"/>
  <path id="Path_134" data-name="Path 134" d="M436.087,332.893c-.08.03-.15.06-.23.09a3.75,3.75,0,0,1-.47.17,12.934,12.934,0,0,1-3.17.72,12.684,12.684,0,0,1-1.39.07,13.089,13.089,0,0,1-1.78-.12,12.593,12.593,0,0,1-1.94-.4,9.241,9.241,0,0,1-.89-.29,13.64,13.64,0,0,1-8.42-8.77v-.01a5.91,5.91,0,0,1-.17-.6,13.539,13.539,0,0,1-.44-3.45v-.02a13.539,13.539,0,0,1,2.551-7.911c1-1.409,2.151-1.642,1.509-3.259-2.047-5.158,6.391-9.348,11.36-7.07a4.878,4.878,0,0,1,.54-.02c3.35,0,4.58,4.95,6.57,7.74l-.058.019a2.57,2.57,0,0,0,.02,4.863q1.993.655,4.028,1.158C448.17,321.1,443,336.555,436.087,332.893Z" transform="translate(-173.493 -103.871)" fill="#2f2e41"/>
  <path id="Path_135" data-name="Path 135" d="M433.587,347.063c-1.49,5.63-4.23,11.12-8.76,14.77s-25.87,12.27-27.65,4.84c1.19,5.19.46,7.17-1.48,9.02-.33-.45-.68-.88-1.04-1.3a16.87,16.87,0,0,0-4.7-3.79,54.222,54.222,0,0,0,.65,9.36,31.645,31.645,0,0,0-2.28,2.32c-3.42-10.28-10.942-22.6-5.45-31.94,2.18-3.706.371-4.219-1.55-4.65-3.354-.752-5.17-14.53-5.96-17.88-.98-4.2-1.36-9.03,1.25-12.47s9.19-3.57,10.51.54l2.78-3.76c3.6-7.87,13.1-6.27,21.69-5.23s16.16,7.09,20.01,14.84S435.8,338.693,433.587,347.063Z" transform="translate(-173.493 -103.871)" fill="#2f2e41"/>
  <path id="Path_136" data-name="Path 136" d="M420.132,311.038a24.257,24.257,0,0,0,13.818,22.9c1.744.8,3.27-1.789,1.514-2.59a21.341,21.341,0,0,1-12.332-20.307c.1-1.929-2.9-1.923-3,0Z" transform="translate(-173.493 -103.871)" fill="#ff6584"/>
  <path id="Path_137" data-name="Path 137" d="M302.39,766.137a2.606,2.606,0,0,1-1.888-4.516l.179-.71-.071-.17c-2.4-5.72-17.706,10.225-18.368,15.6a20.7,20.7,0,0,0,.363,7.119,82.992,82.992,0,0,1-7.549-34.469,80.1,80.1,0,0,1,.5-8.936q.412-3.649,1.142-7.245a83.954,83.954,0,0,1,16.649-35.582c4.738.264,8.891-.457,9.292-9.641.071-1.634,1.283-3.048,1.55-4.657-.452.059-.912.1-1.365.126l-.43.022-.053,0a2.582,2.582,0,0,1-2.12-4.206l.586-.721c.3-.371.6-.734.9-1.1a1.276,1.276,0,0,0,.1-.111c.341-.423.682-.838,1.023-1.261a7.465,7.465,0,0,0-2.447-2.366c-3.419-2-8.135-.615-10.6,2.477s-2.944,7.431-2.084,11.294a29.916,29.916,0,0,0,4.138,9.225c-.185.237-.378.467-.564.7a84.494,84.494,0,0,0-8.819,13.972c.7-5.472-7.867-25.236-11.18-29.422-3.98-5.028-12.14-2.834-12.841,3.54q-.01.093-.02.185.738.416,1.445.884a3.534,3.534,0,0,1-1.425,6.432l-.072.011c-6.587,9.405,14.53,33.885,19.815,28.388a86.248,86.248,0,0,0-4.642,21.847,81.8,81.8,0,0,0,.059,13.208l-.022-.156c-1.174-9.57-21.322-23.8-27.206-22.613-3.389.683-6.728.528-6.213,3.946l.025.164a23.761,23.761,0,0,1,2.662,1.283q.738.416,1.445.884A3.534,3.534,0,0,1,242.846,746l-.072.011-.148.022c-3,10.317,19.238,26.967,32.756,21.669h.007a86.222,86.222,0,0,0,5.792,16.908h20.69c.074-.23.141-.467.208-.7a23.5,23.5,0,0,1-5.725-.341c1.535-1.884,3.07-3.782,4.605-5.666a1.294,1.294,0,0,0,.1-.111c.779-.964,1.565-1.921,2.343-2.885h0a34.433,34.433,0,0,0-1.009-8.772ZM278.7,719.528l.011-.015-.011.03Zm-4.583,41.314-.178-.4c.007-.289.007-.578,0-.875,0-.082-.015-.163-.015-.245.067.512.126,1.023.2,1.535Z" transform="translate(-173.493 -103.871)" fill="#6c63ff"/>
  <rect id="Rectangle_43" data-name="Rectangle 43" width="292.118" height="2" transform="translate(66.754 680.242)" fill="#ccc"/>
  <path id="Path_138" data-name="Path 138" d="M918.391,239.166l-.024.021a12.658,12.658,0,0,0-18.874,16.828l-.024.021,16.871,18.922,18.922-16.871a12.676,12.676,0,0,0-16.871-18.922Z" transform="translate(-173.493 -103.871)" fill="#6c63ff"/>
</svg>
