<svg xmlns="http://www.w3.org/2000/svg" width="782.641" height="518.461" viewBox="0 0 782.641 518.461">
  <g id="Group_3" data-name="Group 3" transform="translate(0 -111.415)">
    <path id="Path_15" data-name="Path 15" d="M363.348,549.372c-36.592-36.022-52.046-73.6-43.518-105.816,10.944-41.34,59.565-69.924,133.394-78.421l.273,2.371c-72.8,8.378-120.68,36.32-131.36,76.66-8.3,31.351,6.931,68.11,42.885,103.505Z" transform="translate(-195.329 -135.062)" fill="#f0f0f0"/>
    <path id="Path_16" data-name="Path 16" d="M716.4,677.239c-45.669,0-95.3-6.787-144.59-19.837-60.958-16.138-116.851-40.5-161.634-70.443l1.326-1.983c44.568,29.8,100.213,54.049,160.919,70.119,54.859,14.524,110.13,21.254,159.817,19.478l.086,2.384Q724.449,677.24,716.4,677.239Z" transform="translate(-195.329 -135.062)" fill="#f0f0f0"/>
    <path id="Path_17" data-name="Path 17" d="M821.166,662.231l-.764-2.261c40.844-13.81,66.391-36.056,73.878-64.335,9.517-35.95-11.159-77.667-58.219-117.467-47.3-40-115.508-73.195-192.061-93.461l.611-2.307C721.5,402.756,790.039,436.12,837.6,476.347c47.8,40.428,68.752,83.01,58.986,119.9C888.886,625.336,862.8,648.153,821.166,662.231Z" transform="translate(-195.329 -135.062)" fill="#f0f0f0"/>
    <path id="Path_18" data-name="Path 18" d="M446.119,678.236c-89.736-39.8-158.885-91.433-194.707-145.392l1.988-1.32c35.574,53.585,104.36,104.914,193.686,144.531Z" transform="translate(-195.329 -135.062)" fill="#f0f0f0"/>
    <path id="Path_19" data-name="Path 19" d="M761.625,747.185q-13.884,0-28.242-.62l.1-2.384c71.433,3.093,134.46-5.456,182.279-24.726l.893,2.214C874.943,738.477,821.776,747.185,761.625,747.185Z" transform="translate(-195.329 -135.062)" fill="#f0f0f0"/>
    <path id="Path_20" data-name="Path 20" d="M709.559,367.275c-14.832-4.829-30.088-9.325-45.344-13.364-87.792-23.242-174.093-31.494-249.575-23.859l-.24-2.375c75.764-7.659,162.36.612,250.426,23.927,15.3,4.051,30.6,8.56,45.472,13.4Z" transform="translate(-195.329 -135.062)" fill="#f0f0f0"/>
    <path id="Path_21" data-name="Path 21" d="M307.265,552.952c-36.592-36.022-52.046-73.6-43.518-105.816,10.944-41.34,59.565-69.923,133.394-78.421l.273,2.371c-72.8,8.378-120.68,36.32-131.36,76.66-8.3,31.351,6.931,68.11,42.885,103.505Z" transform="translate(-195.329 -135.062)" fill="#f0f0f0"/>
    <path id="Path_22" data-name="Path 22" d="M660.314,680.819c-45.669,0-95.3-6.787-144.59-19.837-60.958-16.138-116.851-40.5-161.634-70.443l1.326-1.983c44.568,29.8,100.213,54.049,160.919,70.119,54.859,14.524,110.13,21.254,159.817,19.478l.086,2.384Q668.366,680.82,660.314,680.819Z" transform="translate(-195.329 -135.062)" fill="#f0f0f0"/>
    <path id="Path_23" data-name="Path 23" d="M765.083,665.811l-.764-2.261c40.844-13.81,66.391-36.056,73.878-64.335,9.517-35.95-11.159-77.667-58.219-117.467-47.3-40-115.508-73.194-192.061-93.461l.611-2.307c76.888,20.355,145.428,53.718,192.991,93.945,47.8,40.429,68.752,83.01,58.986,119.9C832.8,628.916,806.722,651.733,765.083,665.811Z" transform="translate(-195.329 -135.062)" fill="#f0f0f0"/>
    <path id="Path_24" data-name="Path 24" d="M390.036,681.816c-89.736-39.8-158.885-91.434-194.707-145.393l1.988-1.32C232.891,588.688,301.677,640.017,391,679.635Z" transform="translate(-195.329 -135.062)" fill="#f0f0f0"/>
    <path id="Path_25" data-name="Path 25" d="M705.542,750.765q-13.884,0-28.242-.62l.1-2.384c71.433,3.093,134.46-5.456,182.279-24.726l.893,2.214C818.86,742.057,765.693,750.765,705.542,750.765Z" transform="translate(-195.329 -135.062)" fill="#f0f0f0"/>
    <path id="Path_26" data-name="Path 26" d="M653.476,370.855c-14.832-4.829-30.088-9.325-45.344-13.364C520.34,334.249,434.039,326,358.557,333.632l-.24-2.375c75.764-7.659,162.36.612,250.426,23.927,15.3,4.051,30.6,8.56,45.472,13.4Z" transform="translate(-195.329 -135.062)" fill="#f0f0f0"/>
    <path id="Path_27" data-name="Path 27" d="M236.006,489.031c17.15-19.228,44.507-30.947,69.3-23.932a118.71,118.71,0,0,0-46.324,67.058c-2.679,10.469-4.568,22.391-13.274,28.792-5.417,3.983-12.595,4.934-19.257,4.027s-12.962-3.5-19.176-6.065l-1.672.145C210.409,533.742,218.856,508.259,236.006,489.031Z" transform="translate(-195.329 -135.062)" fill="#f2f2f2"/>
    <path id="Path_28" data-name="Path 28" d="M305.228,465.634a101.465,101.465,0,0,0-53.212,32.643,43.694,43.694,0,0,0-7.368,11.539,25.061,25.061,0,0,0-1.479,13.106c.557,4.136,1.605,8.3,1.147,12.5a15.345,15.345,0,0,1-6.5,10.732c-4.353,3.179-9.59,4.6-14.758,5.82-5.739,1.35-11.722,2.661-16.4,6.475-.567.462-1.251-.444-.685-.906,8.139-6.636,19.451-5.784,28.457-10.6,4.2-2.249,7.752-5.778,8.615-10.621.755-4.235-.323-8.532-.923-12.715a26.741,26.741,0,0,1,.969-12.869,40.394,40.394,0,0,1,6.9-11.779A98.438,98.438,0,0,1,272.9,478.433a103.265,103.265,0,0,1,32.191-13.927c.708-.171.838.958.134,1.128Z" transform="translate(-195.329 -135.062)" fill="#fff"/>
    <path id="Path_29" data-name="Path 29" d="M256.173,492.8a15.223,15.223,0,0,1-.469-19.707c.462-.566,1.363.124.9.691a14.1,14.1,0,0,0,.474,18.33c.489.543-.42,1.225-.906.685Z" transform="translate(-195.329 -135.062)" fill="#fff"/>
    <path id="Path_30" data-name="Path 30" d="M242.61,520.862A29.341,29.341,0,0,0,263,514.407c.568-.46,1.253.446.685.906a30.52,30.52,0,0,1-21.227,6.674C241.723,521.936,241.884,520.812,242.61,520.862Z" transform="translate(-195.329 -135.062)" fill="#fff"/>
    <path id="Path_31" data-name="Path 31" d="M283.016,473.473a8.617,8.617,0,0,0,6.954,4.3c.731.041.57,1.166-.156,1.125a9.656,9.656,0,0,1-7.7-4.741.587.587,0,0,1,.111-.8.571.571,0,0,1,.8.111Z" transform="translate(-195.329 -135.062)" fill="#fff"/>
    <path id="Path_32" data-name="Path 32" d="M340.495,544.921c-.457-.013-.914-.026-1.377-.031a113.481,113.481,0,0,0-18.377,1.072c-.472.059-.949.125-1.418.2a119.636,119.636,0,0,0-41.593,14.492,116.175,116.175,0,0,0-14.6,9.929c-6.361,5.076-12.854,11.085-20.3,13.686a19.924,19.924,0,0,1-2.367.694l-34.56-23.878c-.051-.094-.108-.18-.16-.274l-1.423-.89c.224-.206.461-.415.686-.621.13-.12.267-.235.4-.355.089-.078.178-.157.254-.232.029-.026.059-.052.083-.07.076-.076.154-.138.224-.206q1.983-1.758,4-3.493c.005-.008.005-.008.019-.01,10.256-8.791,21.337-16.8,33.281-22.879.359-.183.724-.374,1.1-.545a110.865,110.865,0,0,1,16.778-6.766,98.022,98.022,0,0,1,9.614-2.432,81.5,81.5,0,0,1,25.463-.976c16.917,2.02,33,9.427,43.485,22.577C339.972,544.245,340.233,544.576,340.495,544.921Z" transform="translate(-195.329 -135.062)" fill="#f2f2f2"/>
    <path id="Path_33" data-name="Path 33" d="M340.115,545.306a101.465,101.465,0,0,0-62.141-5.974,43.7,43.7,0,0,0-12.83,4.777,25.061,25.061,0,0,0-9.072,9.574c-2.046,3.638-3.717,7.6-6.612,10.673a15.345,15.345,0,0,1-11.655,4.653c-5.39-.083-10.429-2.1-15.288-4.239-5.4-2.378-10.961-4.933-16.993-4.7-.731.028-.731-1.108,0-1.136,10.494-.4,19.013,7.093,29.105,8.667,4.709.734,9.668.054,13.273-3.293,3.152-2.927,4.879-7.007,6.919-10.708a26.74,26.74,0,0,1,8.521-9.692,40.392,40.392,0,0,1,12.6-5.252,98.439,98.439,0,0,1,30.657-2.589,103.264,103.264,0,0,1,34.088,8.261c.669.29.092,1.269-.572.981Z" transform="translate(-195.329 -135.062)" fill="#fff"/>
    <path id="Path_34" data-name="Path 34" d="M284.593,537.46a15.223,15.223,0,0,1,11.49-16.017c.71-.174,1.014.92.3,1.095a14.1,14.1,0,0,0-10.658,14.921c.063.728-1.073.725-1.136,0Z" transform="translate(-195.329 -135.062)" fill="#fff"/>
    <path id="Path_35" data-name="Path 35" d="M256.867,551.7a29.341,29.341,0,0,0,20.163,7.12c.731-.025.731,1.11,0,1.135a30.519,30.519,0,0,1-20.966-7.451c-.553-.48.252-1.281.8-.8Z" transform="translate(-195.329 -135.062)" fill="#fff"/>
    <path id="Path_36" data-name="Path 36" d="M317.66,538.191a8.617,8.617,0,0,0,2.963,7.621c.559.473-.247,1.274-.8.8a9.656,9.656,0,0,1-3.3-8.423.587.587,0,0,1,.567-.568.571.571,0,0,1,.568.567Z" transform="translate(-195.329 -135.062)" fill="#fff"/>
    <path id="Path_37" data-name="Path 37" d="M907.994,646.655c-9.689-23.874-31.516-44.106-57.223-45.831a118.709,118.709,0,0,1,21.091,78.726c-1,10.76-3.224,22.624,2.825,31.578,3.763,5.572,10.2,8.88,16.783,10.265s13.383,1.062,20.1.733l1.526.7C917.074,697.368,917.683,670.529,907.994,646.655Z" transform="translate(-195.329 -135.062)" fill="#f2f2f2"/>
    <path id="Path_38" data-name="Path 38" d="M850.662,601.354a101.465,101.465,0,0,1,39.146,48.629,43.694,43.694,0,0,1,3.061,13.344,25.06,25.06,0,0,1-3.012,12.841c-1.915,3.708-4.3,7.28-5.282,11.39a15.345,15.345,0,0,0,2.518,12.294c3.032,4.457,7.484,7.559,11.944,10.442,4.952,3.2,10.145,6.446,13.27,11.61.379.626,1.327,0,.949-.623-5.436-8.985-16.376-11.985-23.237-19.551-3.2-3.531-5.359-8.047-4.544-12.9.712-4.242,3.172-7.927,5.143-11.665a26.743,26.743,0,0,0,3.413-12.446,40.4,40.4,0,0,0-2.537-13.412,98.44,98.44,0,0,0-14.688-27.034,103.263,103.263,0,0,0-25.638-23.936c-.61-.4-1.111.62-.505,1.017Z" transform="translate(-195.329 -135.062)" fill="#fff"/>
    <path id="Path_39" data-name="Path 39" d="M887.734,643.424a15.223,15.223,0,0,0,7.065-18.4c-.244-.689-1.326-.341-1.081.348a14.1,14.1,0,0,1-6.607,17.1c-.643.347-.016,1.295.623.949Z" transform="translate(-195.329 -135.062)" fill="#fff"/>
    <path id="Path_40" data-name="Path 40" d="M891.076,674.415a29.341,29.341,0,0,1-17.03-12.931c-.381-.624-1.33,0-.949.623a30.519,30.519,0,0,0,17.749,13.42c.7.2.932-.915.231-1.112Z" transform="translate(-195.329 -135.062)" fill="#fff"/>
    <path id="Path_41" data-name="Path 41" d="M868.948,616.2a8.617,8.617,0,0,1-7.995,1.713c-.7-.207-.928.907-.231,1.112a9.656,9.656,0,0,0,8.849-1.876.587.587,0,0,0,.163-.786.571.571,0,0,0-.786-.163Z" transform="translate(-195.329 -135.062)" fill="#fff"/>
    <path id="Path_42" data-name="Path 42" d="M790.8,664.174c.435.141.869.283,1.307.434a113.474,113.474,0,0,1,16.948,7.186c.424.214.852.437,1.269.662a119.634,119.634,0,0,1,34.3,27.629,116.179,116.179,0,0,1,10.409,14.257c4.285,6.918,8.381,14.761,14.52,19.714a19.932,19.932,0,0,0,2,1.449l40.575-10.873c.08-.071.163-.133.243-.2l1.64-.36c-.142-.27-.3-.546-.437-.816-.082-.157-.172-.311-.254-.468-.057-.1-.115-.207-.161-.3-.019-.035-.038-.069-.055-.094-.046-.1-.1-.182-.142-.27q-1.277-2.322-2.591-4.634c0-.009,0-.009-.014-.016-6.7-11.727-14.448-23-23.655-32.734-.277-.293-.556-.6-.852-.883a110.857,110.857,0,0,0-13.528-12.012,97.986,97.986,0,0,0-8.237-5.522,81.5,81.5,0,0,0-23.654-9.477c-16.612-3.784-34.249-2.213-48.543,6.648C791.518,663.714,791.161,663.938,790.8,664.174Z" transform="translate(-195.329 -135.062)" fill="#f2f2f2"/>
    <path id="Path_43" data-name="Path 43" d="M791.028,664.665a101.465,101.465,0,0,1,60.534,15.259,43.693,43.693,0,0,1,10.478,8.811,25.061,25.061,0,0,1,5.326,12.066c.7,4.114.948,8.4,2.64,12.274a15.345,15.345,0,0,0,9.413,8.3c5.1,1.734,10.527,1.53,15.823,1.146,5.88-.426,11.981-.962,17.585,1.281.679.272,1.061-.8.383-1.069-9.75-3.9-20.291.29-30.325-1.62-4.682-.891-9.124-3.2-11.394-7.563-1.985-3.816-2.24-8.239-2.917-12.411a26.742,26.742,0,0,0-4.768-11.992,40.393,40.393,0,0,0-10.1-9.181,98.436,98.436,0,0,0-28-12.742,103.264,103.264,0,0,0-34.881-3.676c-.727.048-.514,1.164.209,1.116Z" transform="translate(-195.329 -135.062)" fill="#fff"/>
    <path id="Path_44" data-name="Path 44" d="M845.956,675.936a15.223,15.223,0,0,0-5.438-18.947c-.61-.4-1.264.526-.654.929a14.1,14.1,0,0,1,5.023,17.635c-.3.664.766,1.044,1.069.383Z" transform="translate(-195.329 -135.062)" fill="#fff"/>
    <path id="Path_45" data-name="Path 45" d="M867.283,698.668A29.34,29.34,0,0,1,845.9,698.6c-.68-.269-1.062.8-.383,1.069a30.519,30.519,0,0,0,22.251.029c.682-.266.193-1.292-.485-1.027Z" transform="translate(-195.329 -135.062)" fill="#fff"/>
    <path id="Path_46" data-name="Path 46" d="M814.567,665.512a8.617,8.617,0,0,1-5.352,6.182c-.685.258-.2,1.283.485,1.027a9.656,9.656,0,0,0,5.936-6.825.587.587,0,0,0-.343-.726.571.571,0,0,0-.726.343Z" transform="translate(-195.329 -135.062)" fill="#fff"/>
    <circle id="Ellipse_8" data-name="Ellipse 8" cx="9.546" cy="9.546" r="9.546" transform="translate(515.136 573.794)" fill="#fd6584"/>
    <circle id="Ellipse_9" data-name="Ellipse 9" cx="9.546" cy="9.546" r="9.546" transform="translate(548.95 411.204)" fill="#e6e6e6"/>
    <circle id="Ellipse_10" data-name="Ellipse 10" cx="9.546" cy="9.546" r="9.546" transform="translate(371.321 146.416)" fill="#e6e6e6"/>
    <path id="Path_47" data-name="Path 47" d="M376.155,657.208c0,2.43.08,4.86.25,7.27.18,2.88.49,5.74.91,8.58a107.248,107.248,0,0,0,8.02,27.73l.6,1.32.3.66c.1.22.21.44.31.65.14.29.27.57.41.85.17.35.34.7.52,1.05.02.04.04.09.07.14.15.3.29.59.45.89a1.745,1.745,0,0,0,.1.19c.17.34.35.69.53,1.03.2.36.39.73.59,1.09.48.89.98,1.77,1.49,2.65.15.26.3.52.46.78.14.24.28.48.43.72.1.16.2.33.3.49.16.27.32.53.49.8.37.59.75,1.18,1.12,1.77h.01c.17.27.35.54.53.8v.01c.53.8,1.08,1.6,1.63,2.39a.009.009,0,0,1,.007,0,.01.01,0,0,1,0,.007c.44.64.9,1.26,1.35,1.88v.01c.3.39.59.79.89,1.18.24.32.49.65.74.97.05.07.11.13.16.2v.01c.07.09.14.17.21.26q1.59,2.04,3.28,3.99l.18.21c.06.07.13.14.19.22.1.11.19.22.29.33s.19.22.29.33a108.614,108.614,0,0,0,19.83,17.49c.97.67,1.96,1.32,2.95,1.95.25.16.5.32.75.47.07.05.15.1.22.15.14.08.27.16.41.25s.26.16.4.24c.53.33,1.07.65,1.61.97.13.08.27.16.41.24s.27.15.41.23c0,.01,0,.01.01.01h.01v.01h.01q1.005.585,2.04,1.14c.37.2.75.41,1.13.6.86.47,1.73.92,2.6,1.35.31.15.63.3.94.46.26.12.52.25.78.37.08.04.15.07.22.11.22.1.43.2.65.3.24.11.48.22.71.33.27.12.53.24.8.35,1,.45,2.01.88,3.02,1.29a105.88,105.88,0,0,0,11.08,3.84c.17.05.35.1.53.15q2.415.675,4.86,1.23,4.275.99,8.63,1.62h.02l1.04.15c.03,0,.06.01.1.01,0,.01,0,.01.01,0l1.15.15a.248.248,0,0,0,.08.01c.36.05.73.09,1.09.13l1.17.12.9.09a.194.194,0,0,0,.08.01c.27.02.54.05.81.07h.04l.7.06c2.79.22,5.59.32,8.43.32,3.07,0,6.12-.12,9.13-.38h.03l1.93-.18c.17-.02.33-.03.5-.05.03,0,.07-.01.1-.01.05-.01.1-.01.16-.02a.248.248,0,0,0,.08-.01c.22-.02.44-.05.67-.07l.75-.09c.25-.03.5-.07.75-.1.06-.01.11-.01.17-.02.18-.02.36-.05.54-.08l.26-.03c.18-.03.35-.05.53-.08h.01a105.709,105.709,0,0,0,16.2-3.65c.28-.09.56-.17.84-.26.01,0,.02-.01.03-.01.08-.03.17-.05.25-.08.75-.24,1.49-.49,2.23-.75,1.02-.34,2.03-.71,3.04-1.09.27-.11.54-.21.81-.32.55-.21,1.09-.43,1.63-.65.92-.37,1.84-.76,2.75-1.16.85-.38,1.69-.76,2.53-1.16.02-.01.05-.01.07-.03.19-.09.38-.18.56-.27h.01a107.193,107.193,0,0,0,13.29-7.59q2.04-1.365,4.02-2.82c1.06-.79,2.1-1.59,3.14-2.41a108.274,108.274,0,0,0,14.19-13.56V728c.31-.34.6-.69.9-1.04.05-.05.09-.1.13-.14.19-.23.37-.45.56-.67v-.01c.25-.29.5-.59.74-.89.06-.07.11-.13.16-.19v-.01c.2-.24.39-.48.59-.73.1-.12.19-.24.29-.36v-.01c.59-.74,1.16-1.48,1.73-2.24.15-.2.3-.41.46-.62.72-.97,1.42-1.96,2.1-2.95v-.01c.26-.37.51-.75.77-1.12l.75-1.14c.25-.4.51-.79.76-1.19l.03-.06c.25-.38.5-.78.74-1.17.19-.32.38-.63.57-.94.12-.21.25-.42.37-.64a2.37,2.37,0,0,0,.13-.21l.84-1.47c.33-.57.65-1.15.97-1.73.12-.24.25-.48.38-.72.05-.08.09-.16.13-.24.15-.28.3-.57.44-.86s.3-.57.45-.86.29-.57.43-.86c.11-.22.21-.44.32-.66a.215.215,0,0,1,.03-.05c.05-.11.1-.21.14-.31a.218.218,0,0,0,.03-.05c.11-.22.21-.45.32-.67.14-.29.27-.59.41-.88.09-.2.19-.41.28-.62.13-.29.27-.58.39-.88.14-.3.27-.6.4-.91a2.312,2.312,0,0,0,.1-.23c.07-.14.12-.28.18-.42.16-.37.32-.75.47-1.12.18-.42.35-.85.51-1.27.16-.39.31-.79.46-1.19l.06-.14a108.324,108.324,0,0,0,5.28-18.93v-.01a109.422,109.422,0,0,0,1.43-11.14c.01-.21.03-.41.04-.61.18-2.53.26-5.07.26-7.62,0-1.13-.02-2.25-.05-3.37a107.222,107.222,0,0,0-23.78-64.2c-.32-.4-.64-.8-.97-1.2s-.67-.79-1-1.18a107.749,107.749,0,0,0-173.04,12.43c-.49.78-.98,1.57-1.45,2.36s-.94,1.6-1.4,2.41a107.276,107.276,0,0,0-13.78,52.75Z" transform="translate(-195.329 -135.062)" fill="#f2f2f2"/>
    <path id="Path_48" data-name="Path 48" d="M479.612,586.741a254.164,254.164,0,0,0,54.148,7.815,67.8,67.8,0,0,0,8.3-.056c6.069-.51,11.268-2.418,17.057-3.46,2.783-.5,5.884-.865,8.686-1.405q-.971-1.2-1.977-2.38c-6.042.51-12.178,2.182-18.293,2.958-10.394,1.322-22.041-.153-29.921-3.791-3.823-1.765-6.751-3.968-10.561-5.741a4.923,4.923,0,0,0-1.658-.508,5.769,5.769,0,0,0-3.127.811c-6.391,3.226-15.671,5.849-24.284,4.406C477.337,585.893,478.557,586.465,479.612,586.741Z" transform="translate(-195.329 -135.062)" fill="#fff"/>
    <path id="Path_49" data-name="Path 49" d="M441.5,598.1c-.079-.014-.158-.026-.236-.039a6.424,6.424,0,0,0,.931-.7Z" transform="translate(-195.329 -135.062)" fill="#fff"/>
    <path id="Path_50" data-name="Path 50" d="M389.937,604.462q5.4.431,10.848.642a68.346,68.346,0,0,0,8.3-.056c6.069-.513,11.268-2.418,17.057-3.46,5.306-.954,11.754-1.413,15.123-3.53-8.707-1.507-17.729,1.561-26.707,2.7a63.772,63.772,0,0,1-21.764-1.075Q391.3,602.031,389.937,604.462Z" transform="translate(-195.329 -135.062)" fill="#fff"/>
    <path id="Path_51" data-name="Path 51" d="M433.455,752.418c.86.47,1.73.92,2.6,1.35.31.15.63.3.94.46.26.12.52.25.78.37.08.04.15.07.22.11.22.1.43.2.65.3.24.11.48.22.71.33.27.12.53.24.8.35,1,.45,2.01.88,3.02,1.29a105.88,105.88,0,0,0,11.08,3.84c.17.05.35.1.53.15q2.415.675,4.86,1.23,4.275.99,8.63,1.62h.02l1.04.15c.03,0,.06.01.1.01,0,.01,0,.01.01,0l1.15.15a.248.248,0,0,0,.08.01c.36.05.73.09,1.09.13l1.17.12.9.09a.2.2,0,0,0,.08.01c.27.02.54.05.81.07h.04l.7.06c2.79.22,5.59.32,8.43.32,3.07,0,6.12-.12,9.13-.38h.03l1.93-.18c.17-.02.33-.03.5-.05.03,0,.07-.01.1-.01.05-.01.1-.01.16-.02a.248.248,0,0,0,.08-.01c.22-.02.44-.05.67-.07l.75-.09c.25-.03.5-.07.75-.1.06-.01.11-.01.17-.02.18-.02.36-.05.54-.08l.26-.03c.18-.03.35-.05.53-.08h.01a105.71,105.71,0,0,0,16.2-3.65c.28-.09.56-.17.84-.26a40.177,40.177,0,0,0-22.03-27.86,9.5,9.5,0,0,0,2.73-4.86,9.3,9.3,0,0,0-1.28-7.02,8.968,8.968,0,0,0-5.66-3.88l-14.82-3.1a9.223,9.223,0,0,0-10.8,7.2,9.764,9.764,0,0,0-.2,2.22C450.215,732.108,439.945,741.958,433.455,752.418Z" transform="translate(-195.329 -135.062)" fill="#6c63ff"/>
    <circle id="Ellipse_11" data-name="Ellipse 11" cx="30.876" cy="30.876" r="30.876" transform="translate(251.008 510.521)" fill="#ffb8b8"/>
    <path id="Path_52" data-name="Path 52" d="M457.968,703.078c-3.293-2.249-6.655-6.571-8.9-9.81a37.075,37.075,0,0,1-5.725-29.6A11.3,11.3,0,0,1,446,658.222c1.454-1.439,3.829-2.121,5.6-1.1a10.132,10.132,0,0,1,.412-8.04,17.857,17.857,0,0,1,5.279-6.288,29.738,29.738,0,0,1,30.283-3.585c1.929.894-1.239-6.008.78-5.343a8.23,8.23,0,0,0,6.212-.109c1.9-.956,8.192,4.723,7.464,2.726a9.377,9.377,0,0,1,2.172,15.7c-1.593,1.345-3.583,2.12-5.328,3.262a15.3,15.3,0,0,0-4.679,19.74,20.267,20.267,0,0,0-5.965-2.592,6.859,6.859,0,0,0-6.1,1.468,7.706,7.706,0,0,0-1.867,5.816c.069,2.1.568,4.16.624,6.255.164,6.149,3.457,17.84-1.31,21.109C475.815,709.82,462.464,706.149,457.968,703.078Z" transform="translate(-195.329 -135.062)" fill="#2f2e41"/>
    <path id="Path_57" data-name="Path 57" d="M498.443,521.918a4.93,4.93,0,0,1-1.894-.383,4.79,4.79,0,0,1-3-4.5v-4.887a3.871,3.871,0,0,0-3.866-3.867,4.872,4.872,0,0,1-4.867-4.867V436.465a4.872,4.872,0,0,1,4.866-4.867H711.505a4.872,4.872,0,0,1,4.867,4.867V503.42a4.872,4.872,0,0,1-4.867,4.867H515.65a3.843,3.843,0,0,0-2.734,1.132l-11.062,11.062A4.8,4.8,0,0,1,498.443,521.918Z" transform="translate(-195.329 -135.062)" fill="#fff"/>
    <path id="Path_58" data-name="Path 58" d="M498.443,522.918a5.911,5.911,0,0,1-2.277-.459,5.775,5.775,0,0,1-3.621-5.419v-4.887a2.87,2.87,0,0,0-2.866-2.867,5.874,5.874,0,0,1-5.867-5.867V436.465a5.873,5.873,0,0,1,5.866-5.867H711.505a5.873,5.873,0,0,1,5.867,5.867V503.42a5.874,5.874,0,0,1-5.867,5.867H515.65a2.847,2.847,0,0,0-2.027.84l-11.062,11.062A5.8,5.8,0,0,1,498.443,522.918Zm-8.764-90.32a3.871,3.871,0,0,0-3.866,3.867v66.955a3.871,3.871,0,0,0,3.867,3.867,4.872,4.872,0,0,1,4.866,4.867v4.887a3.867,3.867,0,0,0,6.6,2.733l11.062-11.061a4.833,4.833,0,0,1,3.441-1.426H711.505a3.871,3.871,0,0,0,3.867-3.867V436.465a3.871,3.871,0,0,0-3.867-3.867Z" transform="translate(-195.329 -135.062)" fill="#3f3d56"/>
    <path id="Path_59" data-name="Path 59" d="M692.443,461.91H512.565a2.591,2.591,0,0,1,0-5.182H692.443a2.591,2.591,0,1,1,0,5.182Z" transform="translate(-195.329 -135.062)" fill="#6c63ff"/>
    <path id="Path_60" data-name="Path 60" d="M692.113,472.917H512.565a2.591,2.591,0,0,1,0-5.182H692.113a2.591,2.591,0,1,1,0,5.182Z" transform="translate(-195.329 -135.062)" fill="#e6e6e6"/>
    <path id="Path_61" data-name="Path 61" d="M691.934,483.924H512.565a2.591,2.591,0,0,1,0-5.182H691.934a2.591,2.591,0,0,1,0,5.182Z" transform="translate(-195.329 -135.062)" fill="#e6e6e6"/>
    <path id="Path_62" data-name="Path 62" d="M975.715,421.208c0,2.43-.08,4.86-.25,7.27-.18,2.88-.49,5.74-.91,8.58a107.246,107.246,0,0,1-8.02,27.73l-.6,1.32-.3.66c-.1.22-.21.44-.31.65-.14.29-.27.57-.41.85-.17.35-.34.7-.52,1.05-.02.04-.04.09-.07.14-.15.3-.29.59-.45.89a1.731,1.731,0,0,1-.1.19c-.17.34-.35.69-.53,1.03-.2.36-.39.73-.59,1.09-.48.89-.98,1.77-1.49,2.65-.15.26-.3.52-.46.78-.14.24-.28.48-.43.72-.1.16-.2.33-.3.49-.16.27-.32.53-.49.8-.37.59-.75,1.18-1.12,1.77h-.01c-.17.27-.35.54-.53.8v.01c-.53.8-1.08,1.6-1.63,2.39a.01.01,0,0,0-.007,0,.01.01,0,0,0,0,.007c-.44.64-.9,1.26-1.35,1.88v.01c-.3.39-.59.79-.89,1.18-.24.32-.49.65-.74.97-.05.07-.11.13-.16.2v.01c-.07.09-.14.17-.21.26q-1.59,2.04-3.28,3.99l-.18.21c-.06.07-.13.14-.19.22-.1.11-.19.22-.29.33s-.19.22-.29.33a108.619,108.619,0,0,1-19.83,17.49c-.97.67-1.96,1.32-2.95,1.95-.25.16-.5.32-.75.47-.07.05-.15.1-.22.15-.14.08-.27.16-.41.25s-.26.16-.4.24c-.53.33-1.07.65-1.61.97-.13.08-.27.16-.41.24s-.27.15-.41.23c0,.01,0,.01-.01.01h-.01v.01h-.01q-1.005.585-2.04,1.14c-.37.2-.75.41-1.13.6-.86.47-1.73.92-2.6,1.35-.31.15-.63.3-.94.46-.26.12-.52.25-.78.37-.08.04-.15.07-.22.11-.22.1-.43.2-.65.3-.24.11-.48.22-.71.33-.27.12-.53.24-.8.35-1,.45-2.01.88-3.02,1.29a105.891,105.891,0,0,1-11.08,3.84c-.17.05-.35.1-.53.15q-2.415.675-4.86,1.23-4.275.99-8.63,1.62h-.02l-1.04.15c-.03,0-.06.01-.1.01,0,.01,0,.01-.01,0l-1.15.15a.25.25,0,0,1-.08.01c-.36.05-.73.09-1.09.13l-1.17.12-.9.09a.194.194,0,0,1-.08.01c-.27.02-.54.05-.81.07h-.04l-.7.06c-2.79.22-5.59.32-8.43.32-3.07,0-6.12-.12-9.13-.38h-.03l-1.93-.18c-.17-.02-.33-.03-.5-.05-.03,0-.07-.01-.1-.01-.05-.01-.1-.01-.16-.02a.248.248,0,0,1-.08-.01c-.22-.02-.44-.05-.67-.07l-.75-.09c-.25-.03-.5-.07-.75-.1-.06-.01-.11-.01-.17-.02-.18-.02-.36-.05-.54-.08l-.26-.03c-.18-.03-.35-.05-.53-.08h-.01a105.7,105.7,0,0,1-16.2-3.65c-.28-.09-.56-.17-.84-.26-.01,0-.02-.01-.03-.01-.08-.03-.17-.05-.25-.08-.75-.24-1.49-.49-2.23-.75-1.02-.34-2.03-.71-3.04-1.09-.27-.11-.54-.21-.81-.32-.55-.21-1.09-.43-1.63-.65-.92-.37-1.84-.76-2.75-1.16-.85-.38-1.69-.76-2.53-1.16-.02-.01-.05-.01-.07-.03-.19-.09-.38-.18-.56-.27h-.01a107.2,107.2,0,0,1-13.29-7.59q-2.04-1.365-4.02-2.82c-1.06-.79-2.1-1.59-3.14-2.41a108.28,108.28,0,0,1-14.19-13.56V492c-.31-.34-.6-.69-.9-1.04-.05-.05-.09-.1-.13-.14-.19-.23-.37-.45-.56-.67v-.01c-.25-.29-.5-.59-.74-.89-.06-.07-.11-.13-.16-.19v-.01c-.2-.24-.39-.48-.59-.73-.1-.12-.19-.24-.29-.36v-.01c-.59-.74-1.16-1.48-1.73-2.24-.15-.2-.3-.41-.46-.62-.72-.97-1.42-1.96-2.1-2.95v-.01c-.26-.37-.51-.75-.77-1.12l-.75-1.14c-.25-.4-.51-.79-.76-1.19l-.03-.06c-.25-.38-.5-.78-.74-1.17-.19-.32-.38-.63-.57-.94-.12-.21-.25-.42-.37-.64a2.4,2.4,0,0,1-.13-.21l-.84-1.47c-.33-.57-.65-1.15-.97-1.73-.12-.24-.25-.48-.38-.72-.05-.08-.09-.16-.13-.24-.15-.28-.3-.57-.44-.86s-.3-.57-.45-.86-.29-.57-.43-.86c-.11-.22-.21-.44-.32-.66a.216.216,0,0,0-.03-.05c-.05-.11-.1-.21-.14-.31a.214.214,0,0,1-.03-.05c-.11-.22-.21-.45-.32-.67-.14-.29-.27-.59-.41-.88-.09-.2-.19-.41-.28-.62-.13-.29-.27-.58-.39-.88-.14-.3-.27-.6-.4-.91a2.288,2.288,0,0,1-.1-.23c-.07-.14-.12-.28-.18-.42-.16-.37-.32-.75-.47-1.12-.18-.42-.35-.85-.51-1.27-.16-.39-.31-.79-.46-1.19l-.06-.14a108.312,108.312,0,0,1-5.28-18.93v-.01a109.436,109.436,0,0,1-1.43-11.14c-.01-.21-.03-.41-.04-.61-.18-2.53-.26-5.07-.26-7.62,0-1.13.02-2.25.05-3.37a107.221,107.221,0,0,1,23.78-64.2c.32-.4.64-.8.97-1.2s.67-.79,1-1.18a107.749,107.749,0,0,1,173.04,12.43c.49.78.98,1.57,1.45,2.36s.94,1.6,1.4,2.41a107.276,107.276,0,0,1,13.78,52.75Z" transform="translate(-195.329 -135.062)" fill="#f2f2f2"/>
    <path id="Path_63" data-name="Path 63" d="M872.257,350.741a254.164,254.164,0,0,1-54.148,7.815,67.8,67.8,0,0,1-8.3-.056c-6.069-.51-11.268-2.418-17.057-3.46-2.783-.5-5.884-.865-8.686-1.405q.971-1.2,1.977-2.38c6.042.51,12.178,2.182,18.293,2.958,10.394,1.322,22.041-.153,29.92-3.791,3.823-1.765,6.751-3.968,10.561-5.741a4.922,4.922,0,0,1,1.658-.508,5.768,5.768,0,0,1,3.127.811c6.391,3.227,15.671,5.849,24.284,4.406C874.532,349.892,873.313,350.465,872.257,350.741Z" transform="translate(-195.329 -135.062)" fill="#fff"/>
    <path id="Path_64" data-name="Path 64" d="M910.371,362.1c.079-.014.158-.026.236-.039a6.42,6.42,0,0,1-.931-.7Z" transform="translate(-195.329 -135.062)" fill="#fff"/>
    <path id="Path_65" data-name="Path 65" d="M961.932,368.462q-5.4.431-10.848.642a68.346,68.346,0,0,1-8.3-.056c-6.069-.513-11.268-2.418-17.057-3.46-5.306-.954-11.754-1.413-15.123-3.53,8.707-1.507,17.729,1.561,26.707,2.7a63.772,63.772,0,0,0,21.764-1.075Q960.57,366.031,961.932,368.462Z" transform="translate(-195.329 -135.062)" fill="#fff"/>
    <ellipse id="Ellipse_15" data-name="Ellipse 15" cx="32.359" cy="33.08" rx="32.359" ry="33.08" transform="translate(628.141 267.127)" fill="#ffb6b6"/>
    <path id="Path_66" data-name="Path 66" d="M918.415,516.418c-.86.47-1.73.92-2.6,1.35-.31.15-.63.3-.94.46-.26.12-.52.25-.78.37-.08.04-.15.07-.22.11-.22.1-.43.2-.65.3-.24.11-.48.22-.71.33-.27.12-.53.24-.8.35-1,.45-2.01.88-3.02,1.29a105.854,105.854,0,0,1-11.08,3.84c-.17.05-.35.1-.53.15q-2.415.675-4.86,1.23-4.275.99-8.63,1.62h-.02l-1.04.15c-.03,0-.06.01-.1.01,0,.01,0,.01-.01,0l-1.15.15a.249.249,0,0,1-.08.01c-.36.05-.73.09-1.09.13l-1.17.12-.9.09a.2.2,0,0,1-.08.01c-.27.02-.54.05-.81.07h-.04l-.7.06c-2.79.22-5.59.32-8.43.32-3.07,0-6.12-.12-9.13-.38h-.03l-1.93-.18c-.17-.02-.33-.03-.5-.05-.03,0-.07-.01-.1-.01-.05-.01-.1-.01-.16-.02a.248.248,0,0,1-.08-.01c-.22-.02-.44-.05-.67-.07l-.75-.09c-.25-.03-.5-.07-.75-.1-.06-.01-.11-.01-.17-.02-.18-.02-.36-.05-.54-.08l-.26-.03c-.18-.03-.35-.05-.53-.08h-.01a105.711,105.711,0,0,1-16.2-3.65c-.28-.09-.56-.17-.84-.26a40.177,40.177,0,0,1,22.03-27.86,9.5,9.5,0,0,1-2.73-4.86,9.294,9.294,0,0,1,1.28-7.02,8.968,8.968,0,0,1,5.66-3.88l14.82-3.1a9.223,9.223,0,0,1,10.8,7.2,9.767,9.767,0,0,1,.2,2.22C901.655,496.108,911.925,505.958,918.415,516.418Z" transform="translate(-195.329 -135.062)" fill="#6c63ff"/>
    <path id="Path_67" data-name="Path 67" d="M942.417,420.923c-5.5-6.414-8.115-14.924-12.512-22.208s-12.049-13.8-20.133-12.108c-5.572,1.169-9.879,6.086-12.059,11.568s-2.588,11.527-2.97,17.45c.135-12.171-7.884-23.97-18.93-27.854s-24.264.448-31.205,10.227a16.866,16.866,0,0,0-22.4-.47c-6.208,5.549-7.582,16.11-3.016,23.187s14.454,9.714,21.71,5.789l2.565,2.36c-1.444,5.05,1.356,11.016,6.063,12.917,3.817,1.542,9.205,1.285,10.634,5.291,1,2.8-.867,5.786-2.852,7.937s-4.34,4.372-4.578,7.348c-.36,4.49,4.28,7.636,8.5,8.583,10.171,2.284,21.457-2.426,27.32-11.4q.169-.26.369-.52a39.278,39.278,0,0,0,7.9-30.033c-.33-2.075,0-3.618,1.433-4.109,6.183-2.124,23.5,2.334,28.747,6.362s9.441,9.359,14.49,13.648,11.485,7.6,17.9,6.428c5.135-.935,9.5-4.663,12.442-9.16s4.629-9.738,6.144-14.947C966.615,433.764,951.075,431.019,942.417,420.923Z" transform="translate(-195.329 -135.062)" fill="#2f2e41"/>
    <path id="Path_68" data-name="Path 68" d="M278.155,354.208c0,2.43.08,4.86.25,7.27.18,2.88.49,5.74.91,8.58a107.248,107.248,0,0,0,8.02,27.73l.6,1.32.3.66c.1.22.21.44.31.65.14.29.27.57.41.85.17.35.34.7.52,1.05.02.04.04.09.07.14.15.3.29.59.45.89a1.745,1.745,0,0,0,.1.19c.17.34.35.69.53,1.03.2.36.39.73.59,1.09.48.89.98,1.77,1.49,2.65.15.26.3.52.46.78.14.24.28.48.43.72.1.16.2.33.3.49.16.27.32.53.49.8.37.59.75,1.18,1.12,1.77h.01c.17.27.35.54.53.8v.01c.53.8,1.08,1.6,1.63,2.39a.01.01,0,0,1,.01.01c.44.64.9,1.26,1.35,1.88v.01c.3.39.59.79.89,1.18.24.32.49.65.74.97.05.07.11.13.16.2v.01c.07.09.14.17.21.26q1.59,2.04,3.28,3.99l.18.21c.06.07.13.14.19.22.1.11.19.22.29.33s.19.22.29.33a108.617,108.617,0,0,0,19.83,17.49c.97.67,1.96,1.32,2.95,1.95.25.16.5.32.75.47.07.05.15.1.22.15.14.08.27.16.41.25s.26.16.4.24c.53.33,1.07.65,1.61.97.13.08.27.16.41.24s.27.15.41.23c0,.01,0,.01.01.01h.01v.01h.01q1.005.585,2.04,1.14c.37.2.75.41,1.13.6.86.47,1.73.92,2.6,1.35.31.15.63.3.94.46.26.12.52.25.78.37.08.04.15.07.22.11.22.1.43.2.65.3.24.11.48.22.71.33.27.12.53.24.8.35,1,.45,2.01.88,3.02,1.29a105.87,105.87,0,0,0,11.08,3.84c.17.05.35.1.53.15q2.415.675,4.86,1.23,4.275.99,8.63,1.62h.02l1.04.15c.03,0,.06.01.1.01,0,.01,0,.01.01,0l1.15.15a.249.249,0,0,0,.08.01c.36.05.73.09,1.09.13l1.17.12.9.09a.194.194,0,0,0,.08.01c.27.02.54.05.81.07h.04l.7.06c2.79.22,5.59.32,8.43.32,3.07,0,6.12-.12,9.13-.38h.03l1.93-.18c.17-.02.33-.03.5-.05.03,0,.07-.01.1-.01.05-.01.1-.01.16-.02a.249.249,0,0,0,.08-.01c.22-.02.44-.05.67-.07l.75-.09c.25-.03.5-.07.75-.1.06-.01.11-.01.17-.02.18-.02.36-.05.54-.08l.26-.03c.18-.03.35-.05.53-.08h.01a105.713,105.713,0,0,0,16.2-3.65c.28-.09.56-.17.84-.26.01,0,.02-.01.03-.01.08-.03.17-.05.25-.08.75-.24,1.49-.49,2.23-.75,1.02-.34,2.03-.71,3.04-1.09.27-.11.54-.21.81-.32.55-.21,1.09-.43,1.63-.65.92-.37,1.84-.76,2.75-1.16.85-.38,1.69-.76,2.53-1.16.02-.01.05-.01.07-.03.19-.09.38-.18.56-.27h.01a107.192,107.192,0,0,0,13.29-7.59q2.04-1.365,4.02-2.82c1.06-.79,2.1-1.59,3.14-2.41a108.283,108.283,0,0,0,14.19-13.56V425c.31-.34.6-.69.9-1.04.05-.05.09-.1.13-.14.19-.23.37-.45.56-.67v-.01c.25-.29.5-.59.74-.89.06-.07.11-.13.16-.19v-.01c.2-.24.39-.48.59-.73.1-.12.19-.24.29-.36v-.01c.59-.74,1.16-1.48,1.73-2.24.15-.2.3-.41.46-.62.72-.97,1.42-1.96,2.1-2.95v-.01c.26-.37.51-.75.77-1.12l.75-1.14c.25-.4.51-.79.76-1.19l.03-.06c.25-.38.5-.78.74-1.17.19-.32.38-.63.57-.94.12-.21.25-.42.37-.64a2.379,2.379,0,0,0,.13-.21l.84-1.47c.33-.57.65-1.15.97-1.73.12-.24.25-.48.38-.72.05-.08.09-.16.13-.24.15-.28.3-.57.44-.86s.3-.57.45-.86.29-.57.43-.86c.11-.22.21-.44.32-.66a.216.216,0,0,1,.03-.05c.05-.11.1-.21.14-.31a.218.218,0,0,0,.03-.05c.11-.22.21-.45.32-.67.14-.29.27-.59.41-.88.09-.2.19-.41.28-.62.13-.29.27-.58.39-.88.14-.3.27-.6.4-.91a2.3,2.3,0,0,0,.1-.23c.07-.14.12-.28.18-.42.16-.37.32-.75.47-1.12.18-.42.35-.85.51-1.27.16-.39.31-.79.46-1.19l.06-.14a108.321,108.321,0,0,0,5.28-18.93v-.01a109.419,109.419,0,0,0,1.43-11.14c.01-.21.03-.41.04-.61.18-2.53.26-5.07.26-7.62,0-1.13-.02-2.25-.05-3.37a107.222,107.222,0,0,0-23.78-64.2c-.32-.4-.64-.8-.97-1.2s-.67-.79-1-1.18a107.749,107.749,0,0,0-173.04,12.43c-.49.78-.98,1.57-1.45,2.36s-.94,1.6-1.4,2.41a107.276,107.276,0,0,0-13.78,52.75Z" transform="translate(-195.329 -135.062)" fill="#f2f2f2"/>
    <path id="Path_69" data-name="Path 69" d="M381.612,283.741a254.163,254.163,0,0,0,54.148,7.815,67.8,67.8,0,0,0,8.3-.056c6.069-.51,11.268-2.418,17.057-3.46,2.783-.5,5.884-.865,8.686-1.405q-.971-1.2-1.977-2.38c-6.042.51-12.178,2.182-18.293,2.958-10.394,1.322-22.041-.153-29.921-3.791-3.823-1.765-6.751-3.968-10.561-5.741a4.922,4.922,0,0,0-1.658-.508,5.768,5.768,0,0,0-3.127.811c-6.391,3.227-15.671,5.849-24.284,4.406C379.337,282.892,380.557,283.465,381.612,283.741Z" transform="translate(-195.329 -135.062)" fill="#fff"/>
    <path id="Path_70" data-name="Path 70" d="M343.5,295.1c-.079-.014-.158-.026-.236-.039a6.422,6.422,0,0,0,.931-.7Z" transform="translate(-195.329 -135.062)" fill="#fff"/>
    <path id="Path_71" data-name="Path 71" d="M291.937,301.462q5.4.431,10.848.642a68.333,68.333,0,0,0,8.3-.056c6.069-.513,11.268-2.418,17.057-3.46,5.306-.954,11.754-1.413,15.123-3.53-8.707-1.507-17.729,1.561-26.707,2.7a63.773,63.773,0,0,1-21.764-1.075Q293.3,299.031,291.937,301.462Z" transform="translate(-195.329 -135.062)" fill="#fff"/>
    <path id="Path_72" data-name="Path 72" d="M335.455,449.418c.86.47,1.73.92,2.6,1.35.31.15.63.3.94.46.26.12.52.25.78.37.08.04.15.07.22.11.22.1.43.2.65.3.24.11.48.22.71.33.27.12.53.24.8.35,1,.45,2.01.88,3.02,1.29a105.863,105.863,0,0,0,11.08,3.84c.17.05.35.1.53.15q2.415.675,4.86,1.23,4.275.99,8.63,1.62h.02l1.04.15c.03,0,.06.01.1.01,0,.01,0,.01.01,0l1.15.15a.249.249,0,0,0,.08.01c.36.05.73.09,1.09.13l1.17.12.9.09a.2.2,0,0,0,.08.01c.27.02.54.05.81.07h.04l.7.06c2.79.22,5.59.32,8.43.32,3.07,0,6.12-.12,9.13-.38h.03l1.93-.18c.17-.02.33-.03.5-.05.03,0,.07-.01.1-.01.05-.01.1-.01.16-.02a.25.25,0,0,0,.08-.01c.22-.02.44-.05.67-.07l.75-.09c.25-.03.5-.07.75-.1.06-.01.11-.01.17-.02.18-.02.36-.05.54-.08l.26-.03c.18-.03.35-.05.53-.08h.01a105.709,105.709,0,0,0,16.2-3.65c.28-.09.56-.17.84-.26a40.177,40.177,0,0,0-22.03-27.86,9.5,9.5,0,0,0,2.73-4.86,9.294,9.294,0,0,0-1.28-7.02,8.968,8.968,0,0,0-5.66-3.88l-14.82-3.1a9.223,9.223,0,0,0-10.8,7.2,9.764,9.764,0,0,0-.2,2.22C352.215,429.108,341.945,438.958,335.455,449.418Z" transform="translate(-195.329 -135.062)" fill="#6c63ff"/>
    <circle id="Ellipse_16" data-name="Ellipse 16" cx="36.073" cy="36.073" r="36.073" transform="translate(162.681 192.976)" fill="#9e616a"/>
    <path id="Path_73" data-name="Path 73" d="M388.957,398.256c-9.031,2.439-18.987-.8-26.035-6.955s-11.456-14.867-14-23.87c-1.86-6.594-2.743-13.913.193-20.1s10.837-10.366,16.933-7.24c-3.76-4.381-1.882-11.628,2.51-15.376s10.423-4.823,16.167-5.41c8.336-.852,16.947-.948,24.879,1.753s15.139,8.6,17.622,16.608a12.64,12.64,0,0,0,15.077-3.4A11.452,11.452,0,0,1,436,346.677l12.154-3.94c2.09,4.424-1.572,9.9-6.256,11.317s-9.739-.132-14.184-2.179-8.752-4.635-13.579-5.433-10.5.753-12.731,5.107c-1.17,2.28-1.231,4.951-1.91,7.422s-2.4,5.033-4.954,5.236c-1.614.128-3.195-.732-4.8-.556a5.177,5.177,0,0,0-4.054,3.961,15.2,15.2,0,0,0-.014,5.98l3.087,23.6Z" transform="translate(-195.329 -135.062)" fill="#2f2e41"/>
  </g>
</svg>
