<svg xmlns="http://www.w3.org/2000/svg" width="52.114" height="92.279" viewBox="0 0 52.114 92.279">
  <g id="Question_ai" data-name="Question ai" transform="translate(4.98 0) rotate(4)">
    <path id="Path_81" data-name="Path 81" d="M777.844,301.975c.427-1.133-.646,1.307-.107.228.143-.287.277-.577.429-.86a16.393,16.393,0,0,1,1-1.63c.364-.522.917-.723-.16.184a7.758,7.758,0,0,0,.625-.724,18.259,18.259,0,0,1,1.605-1.556c.407-.349,1.177-.646-.2.127.272-.153.525-.382.786-.557q.8-.538,1.652-1,.425-.229.861-.437c.494-.236,1.315-.317-.238.081.667-.171,1.312-.486,1.979-.676q.85-.241,1.719-.406c.518-.1,1.457-.024-.311.017.316-.007.64-.068.956-.09a18.04,18.04,0,0,1,1.915-.029c.319.012.636.044.954.063,1.058.063-1.6-.294,0,.011a16.161,16.161,0,0,1,1.858.469,7.077,7.077,0,0,0,.909.319l-.821-.354q.3.131.6.275a16.519,16.519,0,0,1,1.71.957c.274.176.537.366.806.549.845.575-1.132-.967.066.083q.61.534,1.17,1.123.336.353.654.723c.356.415.629,1.172-.114-.185.68,1.243,1.53,2.37,2.17,3.652.546,1.093-.5-1.358-.083-.207.112.31.232.617.338.929q.317.938.547,1.9c.153.644.229,1.3.37,1.946-.389-1.774-.1-.748-.066-.266q.052.658.063,1.318.013.823-.04,1.646c-.021.321-.093.663-.089.983-.022-1.665.12-.836.017-.277a18.625,18.625,0,0,1-.461,1.92q-.141.474-.308.94-.148.413-.312.82.478-1.115.076-.212c-1.639,3.278-3.681,6.335-5.293,9.624a43.913,43.913,0,0,0-3.848,26.447,5.938,5.938,0,0,0,2.728,3.547,6.061,6.061,0,0,0,4.574.6c3.346-1.083,4.661-4,4.146-7.3-.182-1.162.1,1.036-.024-.134-.051-.5-.1-1-.137-1.505q-.106-1.508-.087-3.021.017-1.3.125-2.588a7.675,7.675,0,0,1,.156-1.5s-.191,1.193-.062.508c.053-.283.091-.569.142-.852a36.656,36.656,0,0,1,1.474-5.636c.142-.408.3-.811.448-1.216.4-1.069-.412.858.067-.177.427-.923.869-1.835,1.356-2.728,2.043-3.754,4.354-7.271,5.843-11.308a23.729,23.729,0,0,0,1.317-9.893c-.551-6.923-3.486-13.947-8.956-18.429a23.36,23.36,0,0,0-20.637-4.7,24.675,24.675,0,0,0-17.3,15.312c-1.1,2.911,1.216,6.634,4.146,7.3,3.377.769,6.128-1.028,7.3-4.146Z" transform="translate(-766.12 -282.803)" fill="#6c63ff"/>
    <path id="Path_82" data-name="Path 82" d="M804.53,389.984a4.934,4.934,0,1,0-4.934-4.934,4.989,4.989,0,0,0,4.934,4.934Z" transform="translate(-772.068 -300.095)" fill="#6c63ff"/>
  </g>
</svg>
